<svg width="1024" height="1024" viewBox="0 0 1024 1024" fill="none" xmlns="http://www.w3.org/2000/svg">
<g clip-path="url(#clip0_3_6)">
<rect width="1024" height="1024" fill="white"/>
<rect width="1024" height="1024" fill="url(#paint0_linear_3_6)"/>
<rect x="454.396" y="131" width="29.5343" height="761" rx="14.7671" fill="#97A5E9"/>
<path d="M454.396 348.569L454.396 312.144L855.829 312.144C864.114 312.144 870.829 318.859 870.829 327.144L870.829 333.569C870.829 341.853 864.114 348.569 855.829 348.569L454.396 348.569Z" fill="#97A5E9"/>
<path d="M414.032 312.144L414.032 348.569L267.578 348.569C259.294 348.569 252.578 341.853 252.578 333.569L252.578 327.144C252.578 318.859 259.294 312.144 267.578 312.144L414.032 312.144Z" fill="#97A5E9"/>
<path d="M414.032 486.396L414.032 521.837L267.578 521.837C259.294 521.837 252.578 515.121 252.578 506.837L252.578 501.396C252.578 493.112 259.294 486.396 267.578 486.396L414.032 486.396Z" fill="#97A5E9"/>
<path d="M414.032 598.626L414.032 635.052L267.578 635.052C259.294 635.052 252.578 628.336 252.578 620.052L252.578 613.626C252.578 605.342 259.294 598.626 267.578 598.626L414.032 598.626Z" fill="#97A5E9"/>
<path d="M414.032 731.53L414.032 767.956L267.578 767.956C259.294 767.956 252.578 761.24 252.578 752.956L252.578 746.53C252.578 738.246 259.294 731.53 267.578 731.53L414.032 731.53Z" fill="#97A5E9"/>
<path d="M454.396 486.396L454.396 449.97L722.925 449.97C731.209 449.97 737.925 456.686 737.925 464.97L737.925 471.396C737.925 479.68 731.209 486.396 722.925 486.396L454.396 486.396Z" fill="#97A5E9"/>
<path d="M454.396 635.052L454.396 598.626L910.96 598.626C919.244 598.626 925.96 605.342 925.96 613.626L925.96 620.052C925.96 628.336 919.244 635.052 910.96 635.052L454.396 635.052Z" fill="#97A5E9"/>
<path d="M457.349 767.956L457.349 731.53L722.925 731.53C731.209 731.53 737.925 738.246 737.925 746.53L737.925 752.956C737.925 761.24 731.209 767.956 722.925 767.956L457.349 767.956Z" fill="#97A5E9"/>
<circle cx="131.98" cy="515.438" r="32.9799" fill="#97A5E9"/>
</g>
<defs>
<linearGradient id="paint0_linear_3_6" x1="1024" y1="0" x2="0" y2="1024" gradientUnits="userSpaceOnUse">
<stop stop-color="#3A3A3A"/>
<stop offset="1" stop-color="#141414"/>
</linearGradient>
<clipPath id="clip0_3_6">
<rect width="1024" height="1024" fill="white"/>
</clipPath>
</defs>
</svg>
