<svg width="1022" height="161" viewBox="0 0 1022 161" fill="none" xmlns="http://www.w3.org/2000/svg">
<g clip-path="url(#clip0_5_4)">
<rect x="70.0518" y="3" width="5.82147" height="150" rx="2.91074" fill="#97A5E9"/>
<path d="M70.0518 45.8849L70.0518 38.7051L148.545 38.7051C150.527 38.7051 152.135 40.3123 152.135 42.295V42.295C152.135 44.2776 150.527 45.8849 148.545 45.8849L70.0518 45.8849Z" fill="#97A5E9"/>
<path d="M62.0962 38.7051L62.0962 45.8849L33.862 45.8849C31.8794 45.8849 30.2721 44.2776 30.2721 42.295V42.295C30.2721 40.3123 31.8794 38.7051 33.862 38.7051L62.0962 38.7051Z" fill="#97A5E9"/>
<path d="M62.0962 73.0518L62.0962 80.0375L33.765 80.0375C31.8359 80.0375 30.2721 78.4737 30.2721 76.5446C30.2721 74.6156 31.8359 73.0518 33.765 73.0518L62.0962 73.0518Z" fill="#97A5E9"/>
<path d="M62.0962 95.1733L62.0962 102.353L33.862 102.353C31.8794 102.353 30.2721 100.746 30.2721 98.7632V98.7632C30.2721 96.7806 31.8794 95.1733 33.862 95.1733L62.0962 95.1733Z" fill="#97A5E9"/>
<path d="M62.0962 121.37L62.0962 128.55L33.862 128.55C31.8794 128.55 30.2721 126.943 30.2721 124.96V124.96C30.2721 122.977 31.8794 121.37 33.862 121.37L62.0962 121.37Z" fill="#97A5E9"/>
<path d="M70.0518 73.0518L70.0518 65.8719L122.348 65.8719C124.331 65.8719 125.938 67.4792 125.938 69.4618V69.4618C125.938 71.4445 124.331 73.0518 122.348 73.0518L70.0518 73.0518Z" fill="#97A5E9"/>
<path d="M70.0518 102.353L70.0518 95.1733L159.411 95.1733C161.394 95.1733 163.001 96.7806 163.001 98.7632V98.7632C163.001 100.746 161.394 102.353 159.411 102.353L70.0518 102.353Z" fill="#97A5E9"/>
<path d="M70.6335 128.55L70.6335 121.37L122.348 121.37C124.33 121.37 125.938 122.977 125.938 124.96V124.96C125.938 126.943 124.33 128.55 122.348 128.55L70.6335 128.55Z" fill="#97A5E9"/>
<circle cx="6.50065" cy="78.7762" r="6.50065" fill="#97A5E9"/>
<path d="M259.896 86.784C263.992 91.8187 267.448 96.0853 270.264 99.584C273.08 102.997 275.469 105.941 277.432 108.416C279.395 110.805 281.016 112.853 282.296 114.56C283.576 116.181 284.728 117.675 285.752 119.04C286.861 120.405 287.971 121.771 289.08 123.136C290.189 124.501 291.512 126.123 293.048 128H285.624C284.515 128 283.448 127.787 282.424 127.36C282.253 127.189 282.083 127.061 281.912 126.976C281.827 126.891 281.741 126.763 281.656 126.592C281.571 126.507 281.528 126.507 281.528 126.592C281.613 126.677 281.4 126.421 280.888 125.824C280.376 125.141 279.437 123.989 278.072 122.368C276.707 120.661 274.573 118.059 271.672 114.56C268.856 111.061 265.101 106.411 260.408 100.608C255.715 94.8053 249.784 87.5093 242.616 78.72H263.992C266.381 78.72 268.557 78.2933 270.52 77.44C272.568 76.5013 274.317 75.3067 275.768 73.856C277.219 72.4053 278.371 70.6987 279.224 68.736C280.077 66.7733 280.504 64.7253 280.504 62.592C280.504 60.4587 280.077 58.4533 279.224 56.576C278.371 54.6133 277.219 52.9067 275.768 51.456C274.317 49.92 272.568 48.7253 270.52 47.872C268.557 47.0187 266.381 46.592 263.992 46.592C263.907 46.592 261.944 46.5493 258.104 46.464H209.592C207.885 46.464 206.392 45.8667 205.112 44.672C203.832 43.392 203.192 41.856 203.192 40.064V38.4H263.352C266.851 38.3147 270.093 38.912 273.08 40.192C276.152 41.3867 278.797 43.0933 281.016 45.312C283.32 47.4453 285.155 50.0053 286.52 52.992C287.885 55.9787 288.568 59.1787 288.568 62.592C288.568 66.0053 287.885 69.2053 286.52 72.192C285.155 75.1787 283.32 77.7813 281.016 80C278.797 82.1333 276.152 83.84 273.08 85.12C270.093 86.3147 266.851 86.8693 263.352 86.784H259.896ZM365.601 38.4H448.929V42.24C448.929 43.4347 448.502 44.4587 447.649 45.312C446.881 46.08 445.9 46.464 444.705 46.464H367.009C366.07 46.464 365.601 46.0373 365.601 45.184V38.4ZM440.737 82.944C440.737 84.1387 440.31 85.1627 439.457 86.016C438.689 86.8693 437.708 87.296 436.513 87.296H365.601V80.384C365.601 79.616 366.028 79.232 366.881 79.232H440.737V82.944ZM365.601 128V121.088C365.601 120.32 365.985 119.936 366.753 119.936H445.985C447.18 119.936 448.161 120.363 448.929 121.216C449.782 121.984 450.209 122.965 450.209 124.16V128H365.601ZM536.934 100.352L505.446 38.4H510.566C511.846 38.4 513.041 38.7413 514.15 39.424C515.259 40.1067 516.113 41.0453 516.71 42.24C519.697 48.0427 522.299 53.1627 524.518 57.6C526.737 61.952 528.657 65.7493 530.278 68.992C531.985 72.2347 533.393 74.9653 534.502 77.184C535.611 79.3173 536.55 81.1093 537.318 82.56C537.83 83.584 538.342 84.6507 538.854 85.76C539.451 86.8693 539.835 87.5947 540.006 87.936C540.603 88.96 540.859 90.0693 540.774 91.264C540.774 92.3733 540.518 93.3973 540.006 94.336L536.934 100.352ZM607.846 38.4C602.214 49.5787 597.222 59.392 592.87 67.84C588.603 76.288 584.891 83.6267 581.734 89.856C578.577 96 575.889 101.205 573.67 105.472C571.537 109.653 569.787 113.109 568.422 115.84C565.265 122.155 563.515 125.611 563.174 126.208C562.662 127.403 561.681 128 560.23 128H552.934C554.385 125.099 556.262 121.387 558.566 116.864C560.955 112.256 563.515 107.264 566.246 101.888C568.977 96.512 571.793 90.9227 574.694 85.12C577.681 79.3173 580.539 73.728 583.27 68.352C586.001 62.8907 588.518 57.8987 590.822 53.376C593.211 48.8533 595.131 45.1413 596.582 42.24C597.179 41.0453 598.033 40.1067 599.142 39.424C600.251 38.7413 601.489 38.4 602.854 38.4H607.846ZM669.194 38.4C670.389 38.4 671.413 38.8267 672.266 39.68C673.119 40.5333 673.546 41.5573 673.546 42.752V83.2C673.546 88.32 674.485 93.1413 676.362 97.664C678.239 102.101 680.799 105.984 684.042 109.312C687.285 112.64 691.082 115.243 695.434 117.12C699.871 118.997 704.65 119.936 709.77 119.936H728.33C729.525 119.936 730.506 120.363 731.274 121.216C732.127 121.984 732.554 122.965 732.554 124.16V128C725.813 128 720.778 128 717.45 128C714.207 128 711.903 128 710.538 128C709.173 128 708.405 128 708.234 128C708.063 127.915 707.679 127.872 707.082 127.872C701.194 127.531 695.69 126.123 690.57 123.648C685.45 121.173 680.97 117.931 677.13 113.92C673.375 109.909 670.389 105.259 668.17 99.968C666.037 94.6773 664.97 89.088 664.97 83.2V38.4H669.194ZM812.693 38.4C813.888 38.4 814.912 38.8267 815.765 39.68C816.618 40.5333 817.045 41.5573 817.045 42.752V128H812.693C811.498 128 810.474 127.573 809.621 126.72C808.853 125.867 808.469 124.843 808.469 123.648V38.4H812.693ZM892.346 62.848C892.346 59.4347 892.986 56.2347 894.266 53.248C895.631 50.176 897.466 47.5307 899.77 45.312C902.074 43.0933 904.762 41.3867 907.834 40.192C910.906 38.912 914.149 38.3147 917.562 38.4H973.242V42.24C973.242 43.4347 972.815 44.4587 971.962 45.312C971.109 46.08 970.085 46.464 968.89 46.464H916.666C914.447 46.464 912.357 46.9333 910.394 47.872C908.431 48.7253 906.682 49.8773 905.146 51.328C903.695 52.7787 902.543 54.528 901.69 56.576C900.837 58.5387 900.41 60.6293 900.41 62.848C900.41 65.0667 900.837 67.1573 901.69 69.12C902.543 71.0827 903.695 72.832 905.146 74.368C906.682 75.8187 908.431 76.9707 910.394 77.824C912.442 78.6773 914.575 79.104 916.794 79.104C917.989 79.104 919.013 79.5307 919.866 80.384C920.719 81.2373 921.146 82.2613 921.146 83.456V87.168H916.794C913.466 87.168 910.309 86.528 907.322 85.248C904.335 83.968 901.733 82.2613 899.514 80.128C897.295 77.9093 895.546 75.3067 894.266 72.32C892.986 69.3333 892.346 66.176 892.346 62.848ZM954.17 128H893.626V124.16C893.626 122.965 894.053 121.984 894.906 121.216C895.759 120.363 896.783 119.936 897.978 119.936H953.402C955.45 119.851 957.413 119.381 959.29 118.528C961.167 117.589 962.789 116.395 964.154 114.944C965.605 113.493 966.714 111.787 967.482 109.824C968.335 107.861 968.762 105.813 968.762 103.68C968.762 101.632 968.378 99.6267 967.61 97.664C966.842 95.7013 965.733 93.9947 964.282 92.544C962.831 91.008 961.082 89.7707 959.034 88.832C957.071 87.8933 954.81 87.3813 952.25 87.296C951.055 87.296 950.031 86.912 949.178 86.144C948.41 85.2907 948.026 84.2667 948.026 83.072V79.232H952.506C955.834 79.232 958.991 79.872 961.978 81.152C964.965 82.432 967.567 84.1813 969.786 86.4C972.005 88.6187 973.754 91.2213 975.034 94.208C976.314 97.1947 976.954 100.352 976.954 103.68C976.954 106.667 976.399 109.568 975.29 112.384C974.181 115.2 972.602 117.717 970.554 119.936C968.591 122.155 966.202 123.989 963.386 125.44C960.655 126.891 957.583 127.744 954.17 128Z" fill="#202126"/>
</g>
<defs>
<clipPath id="clip0_5_4">
<rect width="1022" height="161" fill="white"/>
</clipPath>
</defs>
</svg>
